<svg data-v-423bf9ae="" xmlns="http://www.w3.org/2000/svg" viewBox="0 0 830 101" class="iconLeft"><!----><!----><!----><g data-v-423bf9ae="" id="5db4afd4-bb63-48d3-8351-a07ec07f2c73" fill="black" transform="matrix(6.696427830171911,0,0,6.696427830171911,103.15827255300343,-5.785643682834561)"><path d="M3.85 12.71L0.34 12.71L0.34 12.42Q1.09 12.42 1.22 12.14L1.22 12.14L1.22 7.39Q0.46 7.34 0.34 7.34L0.34 7.34L0.34 7.01Q0.60 7.01 1.62 6.71Q2.65 6.41 2.97 6.41L2.97 6.41L2.97 7Q3.67 6.41 4.51 6.41L4.51 6.41Q5.85 6.41 6.59 6.91Q7.34 7.41 7.34 8.40L7.34 8.40L7.34 12.14Q7.46 12.42 8.22 12.42L8.22 12.42L8.22 12.71L4.70 12.71L4.70 12.42Q5.46 12.42 5.59 12.14L5.59 12.14L5.59 8.30Q5.59 7.67 5.30 7.28Q5.01 6.89 4.42 6.89L4.42 6.89Q3.56 6.89 2.97 7.45L2.97 7.45L2.97 12.14Q3.09 12.42 3.85 12.42L3.85 12.42L3.85 12.71ZM15.04 9.34L10.61 9.34Q10.64 10.56 11.17 11.44Q11.69 12.32 12.50 12.32L12.50 12.32Q13.72 12.32 14.46 11.40L14.46 11.40L14.80 11.56Q14.39 12.24 13.74 12.54Q13.09 12.85 12.03 12.85L12.03 12.85Q11.48 12.85 10.96 12.69Q10.44 12.53 9.93 12.16Q9.42 11.79 9.11 11.06Q8.79 10.33 8.79 9.32L8.79 9.32Q8.79 8.11 9.65 7.26Q10.51 6.41 11.89 6.41L11.89 6.41Q13.38 6.41 14.21 7.26Q15.04 8.11 15.04 9.34L15.04 9.34ZM10.63 8.90L10.63 8.90L13.17 8.90Q13.09 7.91 12.83 7.37Q12.57 6.83 12.00 6.83L12.00 6.83Q11.49 6.83 11.10 7.34Q10.70 7.85 10.63 8.90ZM22.27 6.55L22.27 11.87Q23.03 11.93 23.16 11.93L23.16 11.93L23.16 12.25Q22.89 12.25 21.87 12.55Q20.85 12.85 20.52 12.85L20.52 12.85L20.52 12.45Q19.81 12.85 19.10 12.85L19.10 12.85Q16.39 12.85 16.39 10.86L16.39 10.86L16.39 7.13Q16.27 6.85 15.51 6.85L15.51 6.85L15.51 6.55L18.14 6.55L18.14 10.96Q18.14 11.26 18.15 11.42Q18.16 11.58 18.21 11.79Q18.27 12.00 18.38 12.11Q18.48 12.22 18.68 12.30Q18.89 12.38 19.18 12.38L19.18 12.38Q19.87 12.38 20.52 12.00L20.52 12.00L20.52 7.13Q20.40 6.85 19.64 6.85L19.64 6.85L19.64 6.55L22.27 6.55ZM27.20 12.71L23.69 12.71L23.69 12.42Q24.44 12.42 24.57 12.14L24.57 12.14L24.57 7.39Q23.81 7.34 23.69 7.34L23.69 7.34L23.69 7.01Q23.95 7.01 24.98 6.71Q26.00 6.41 26.32 6.41L26.32 6.41L26.32 7Q27.05 6.41 27.71 6.41L27.71 6.41Q29.44 6.41 29.44 7.25L29.44 7.25Q29.44 7.59 29.24 7.78Q29.04 7.98 28.74 7.98L28.74 7.98Q28.42 7.98 28.25 7.81Q28.08 7.64 28.04 7.43Q28 7.22 27.88 7.06Q27.76 6.89 27.54 6.89L27.54 6.89Q27.01 6.89 26.32 7.48L26.32 7.48L26.32 12.14Q26.45 12.42 27.20 12.42L27.20 12.42L27.20 12.71ZM31.72 9.24L31.72 9.24Q31.72 10.89 32.16 11.66Q32.61 12.43 33.52 12.43L33.52 12.43Q34.15 12.43 34.48 11.77Q34.82 11.10 34.82 10.01L34.82 10.01Q34.82 8.30 34.42 7.57Q34.02 6.85 33.00 6.85L33.00 6.85Q32.40 6.85 32.06 7.55Q31.72 8.25 31.72 9.24ZM33.33 12.85L33.33 12.85Q31.75 12.85 30.82 11.93Q29.89 11.00 29.89 9.52L29.89 9.52Q29.89 8.19 30.74 7.30Q31.58 6.41 33.24 6.41L33.24 6.41Q34.90 6.41 35.78 7.29Q36.65 8.18 36.65 9.69L36.65 9.69Q36.65 11.03 35.81 11.94Q34.97 12.85 33.33 12.85ZM40.94 12.71L37.42 12.71L37.42 12.42Q38.18 12.42 38.30 12.14L38.30 12.14L38.30 7.39Q37.55 7.34 37.42 7.34L37.42 7.34L37.42 7.01Q37.69 7.01 38.71 6.71Q39.73 6.41 40.05 6.41L40.05 6.41L40.05 6.90Q40.63 6.41 41.50 6.41L41.50 6.41Q43.36 6.41 43.95 7.20L43.95 7.20Q44.58 6.41 45.67 6.41L45.67 6.41Q47.01 6.41 47.70 7.13Q48.40 7.84 48.40 9.60L48.40 9.60L48.40 12.14Q48.52 12.42 49.28 12.42L49.28 12.42L49.28 12.71L45.77 12.71L45.77 12.42Q46.52 12.42 46.65 12.14L46.65 12.14L46.65 9.42Q46.65 8.12 46.42 7.50Q46.19 6.89 45.58 6.89L45.58 6.89Q44.83 6.89 44.16 7.59L44.16 7.59Q44.23 7.78 44.23 8.12L44.23 8.12L44.23 12.14Q44.35 12.42 45.11 12.42L45.11 12.42L45.11 12.71L41.59 12.71L41.59 12.42Q42.35 12.42 42.48 12.14L42.48 12.14L42.48 8.93Q42.48 7.78 42.22 7.34Q41.97 6.89 41.41 6.89L41.41 6.89Q40.82 6.89 40.05 7.56L40.05 7.56L40.05 12.14Q40.18 12.42 40.94 12.42L40.94 12.42L40.94 12.71ZM51.17 7.59L51.17 7.59Q51.49 7.59 51.49 8.16L51.49 8.16Q51.49 8.40 51.25 8.53Q51.02 8.65 50.75 8.65L50.75 8.65Q50.47 8.65 50.25 8.46Q50.04 8.26 50.04 7.95L50.04 7.95Q50.04 7.24 50.74 6.82Q51.45 6.41 52.58 6.41L52.58 6.41Q53.91 6.41 54.66 7.08Q55.40 7.74 55.40 8.76L55.40 8.76L55.40 11.54Q55.40 11.98 55.55 12.19Q55.69 12.40 55.90 12.40L55.90 12.40Q56.08 12.40 56.23 12.31Q56.38 12.21 56.38 12.07L56.38 12.07L56.63 12.07Q56.63 12.82 55.09 12.82L55.09 12.82Q54.38 12.82 53.98 12.32L53.98 12.32Q53.14 12.85 52.04 12.85L52.04 12.85Q49.70 12.85 49.70 11.14L49.70 11.14Q49.70 10.79 49.95 10.51Q50.19 10.23 50.69 10.04Q51.20 9.84 51.60 9.73Q52.00 9.62 52.70 9.47Q53.40 9.32 53.65 9.25L53.65 9.25Q53.65 7.94 53.43 7.43Q53.21 6.92 52.44 6.92L52.44 6.92Q51.98 6.92 51.61 7.10Q51.24 7.29 51.17 7.59ZM53.79 11.98L53.79 11.98Q53.65 11.61 53.65 11.14L53.65 11.14L53.65 9.56Q52.46 9.93 52.08 10.16L52.08 10.16Q51.49 10.56 51.49 11.17L51.49 11.17Q51.49 11.82 51.77 12.10Q52.04 12.38 52.39 12.38L52.39 12.38Q53.00 12.38 53.79 11.98ZM60.24 12.71L56.73 12.71L56.73 12.42Q57.48 12.42 57.61 12.14L57.61 12.14L57.61 7.39Q56.85 7.34 56.73 7.34L56.73 7.34L56.73 7.01Q56.99 7.01 58.02 6.71Q59.04 6.41 59.36 6.41L59.36 6.41L59.36 7Q60.06 6.41 60.90 6.41L60.90 6.41Q62.24 6.41 62.99 6.91Q63.73 7.41 63.73 8.40L63.73 8.40L63.73 12.14Q63.85 12.42 64.61 12.42L64.61 12.42L64.61 12.71L61.10 12.71L61.10 12.42Q61.85 12.42 61.98 12.14L61.98 12.14L61.98 8.30Q61.98 7.67 61.69 7.28Q61.40 6.89 60.82 6.89L60.82 6.89Q59.95 6.89 59.36 7.45L59.36 7.45L59.36 12.14Q59.49 12.42 60.24 12.42L60.24 12.42L60.24 12.71ZM68.59 6.83L68.59 6.83Q67.93 6.83 67.47 7.50Q67.00 8.16 67.00 9.27L67.00 9.27Q67.00 10.51 67.51 11.42Q68.01 12.32 68.82 12.32L68.82 12.32Q70 12.32 70.60 11.31L70.60 11.31L71.12 11.56Q70.71 12.24 70.06 12.54Q69.41 12.85 68.35 12.85L68.35 12.85Q67.93 12.85 67.52 12.76Q67.12 12.67 66.68 12.42Q66.25 12.17 65.93 11.79Q65.60 11.41 65.39 10.77Q65.18 10.14 65.18 9.32L65.18 9.32Q65.18 8.12 66.11 7.27Q67.03 6.41 68.45 6.41L68.45 6.41Q69.58 6.41 70.27 6.80Q70.97 7.18 70.97 7.90L70.97 7.90Q70.97 8.25 70.79 8.47Q70.62 8.69 70.27 8.69L70.27 8.69Q69.93 8.69 69.73 8.53Q69.52 8.37 69.52 8.11L69.52 8.11Q69.52 7.81 69.67 7.67Q69.82 7.53 70.01 7.53L70.01 7.53Q69.83 6.83 68.59 6.83ZM78.16 9.34L73.74 9.34Q73.77 10.56 74.29 11.44Q74.82 12.32 75.63 12.32L75.63 12.32Q76.85 12.32 77.59 11.40L77.59 11.40L77.92 11.56Q77.52 12.24 76.87 12.54Q76.22 12.85 75.15 12.85L75.15 12.85Q74.61 12.85 74.09 12.69Q73.57 12.53 73.06 12.16Q72.55 11.79 72.23 11.06Q71.92 10.33 71.92 9.32L71.92 9.32Q71.92 8.11 72.78 7.26Q73.64 6.41 75.01 6.41L75.01 6.41Q76.51 6.41 77.34 7.26Q78.16 8.11 78.16 9.34L78.16 9.34ZM73.75 8.90L73.75 8.90L76.30 8.90Q76.22 7.91 75.96 7.37Q75.70 6.83 75.12 6.83L75.12 6.83Q74.62 6.83 74.22 7.34Q73.82 7.85 73.75 8.90ZM82.35 12.71L78.83 12.71L78.83 12.42Q79.59 12.42 79.72 12.14L79.72 12.14L79.72 7.39Q78.96 7.34 78.83 7.34L78.83 7.34L78.83 7.01Q79.10 7.01 80.12 6.71Q81.14 6.41 81.47 6.41L81.47 6.41L81.47 7Q82.19 6.41 82.85 6.41L82.85 6.41Q84.59 6.41 84.59 7.25L84.59 7.25Q84.59 7.59 84.38 7.78Q84.18 7.98 83.89 7.98L83.89 7.98Q83.57 7.98 83.40 7.81Q83.23 7.64 83.19 7.43Q83.15 7.22 83.03 7.06Q82.91 6.89 82.68 6.89L82.68 6.89Q82.15 6.89 81.47 7.48L81.47 7.48L81.47 12.14Q81.59 12.42 82.35 12.42L82.35 12.42L82.35 12.71ZM88.31 12.71L84.80 12.71L84.80 12.42Q85.55 12.42 85.68 12.14L85.68 12.14L85.68 4.87Q84.92 4.82 84.80 4.82L84.80 4.82L84.80 4.49Q85.06 4.49 86.09 4.19Q87.11 3.89 87.43 3.89L87.43 3.89L87.43 12.14Q87.56 12.42 88.31 12.42L88.31 12.42L88.31 12.71ZM90.33 7.59L90.33 7.59Q90.65 7.59 90.65 8.16L90.65 8.16Q90.65 8.40 90.41 8.53Q90.17 8.65 89.91 8.65L89.91 8.65Q89.63 8.65 89.41 8.46Q89.19 8.26 89.19 7.95L89.19 7.95Q89.19 7.24 89.90 6.82Q90.61 6.41 91.74 6.41L91.74 6.41Q93.07 6.41 93.81 7.08Q94.56 7.74 94.56 8.76L94.56 8.76L94.56 11.54Q94.56 11.98 94.70 12.19Q94.85 12.40 95.06 12.40L95.06 12.40Q95.24 12.40 95.39 12.31Q95.54 12.21 95.54 12.07L95.54 12.07L95.79 12.07Q95.79 12.82 94.25 12.82L94.25 12.82Q93.53 12.82 93.14 12.32L93.14 12.32Q92.30 12.85 91.20 12.85L91.20 12.85Q88.86 12.85 88.86 11.14L88.86 11.14Q88.86 10.79 89.10 10.51Q89.35 10.23 89.85 10.04Q90.36 9.84 90.75 9.73Q91.15 9.62 91.85 9.47Q92.55 9.32 92.81 9.25L92.81 9.25Q92.81 7.94 92.59 7.43Q92.37 6.92 91.60 6.92L91.60 6.92Q91.14 6.92 90.77 7.10Q90.40 7.29 90.33 7.59ZM92.95 11.98L92.95 11.98Q92.81 11.61 92.81 11.14L92.81 11.14L92.81 9.56Q91.62 9.93 91.24 10.16L91.24 10.16Q90.65 10.56 90.65 11.17L90.65 11.17Q90.65 11.82 90.92 12.10Q91.20 12.38 91.55 12.38L91.55 12.38Q92.16 12.38 92.95 11.98ZM96.35 12.85L96.35 4.87Q95.59 4.82 95.47 4.82L95.47 4.82L95.47 4.49Q95.73 4.49 96.75 4.19Q97.78 3.89 98.10 3.89L98.10 3.89L98.10 6.75Q98.74 6.36 99.67 6.36L99.67 6.36Q100.03 6.36 100.42 6.45Q100.81 6.54 101.26 6.77Q101.71 7 102.06 7.36Q102.41 7.71 102.64 8.29Q102.87 8.88 102.87 9.60L102.87 9.60Q102.87 11.14 101.84 12.00Q100.81 12.85 99.36 12.85L99.36 12.85Q98.42 12.85 97.80 12.40L97.80 12.40Q96.68 12.85 96.35 12.85L96.35 12.85ZM98.10 7.20L98.10 7.20L98.10 12.12Q98.57 12.38 99.27 12.38L99.27 12.38Q100.03 12.38 100.54 11.65Q101.05 10.93 101.05 9.60L101.05 9.60Q101.05 8.34 100.65 7.59Q100.25 6.83 99.53 6.83L99.53 6.83Q98.67 6.83 98.10 7.20ZM106.18 12.29L106.18 12.29Q107.13 12.29 107.13 11.42L107.13 11.42Q107.13 11.19 106.79 10.96Q106.46 10.72 105.98 10.49Q105.50 10.26 105.03 9.97Q104.55 9.67 104.22 9.19Q103.88 8.71 103.88 8.11L103.88 8.11Q103.88 7.32 104.48 6.87Q105.07 6.41 105.90 6.41L105.90 6.41Q106.37 6.41 106.88 6.62Q107.38 6.83 107.45 6.83L107.45 6.83Q107.62 6.83 107.62 6.55L107.62 6.55L107.94 6.55L108.08 8.60L107.77 8.60Q107.63 8.01 107.05 7.45Q106.47 6.89 105.94 6.89L105.94 6.89Q104.94 6.89 104.94 7.62L104.94 7.62Q104.94 7.87 105.49 8.20Q106.04 8.53 106.68 8.83Q107.32 9.14 107.87 9.72Q108.42 10.29 108.42 10.98L108.42 10.98Q108.42 11.84 107.76 12.35Q107.10 12.85 106.06 12.85L106.06 12.85Q105.56 12.85 105.04 12.64Q104.52 12.43 104.47 12.43L104.47 12.43Q104.30 12.43 104.30 12.71L104.30 12.71L103.96 12.71L103.82 10.57L104.13 10.57Q104.27 11.13 104.98 11.71Q105.69 12.29 106.18 12.29Z"></path></g><!----><g data-v-423bf9ae="" id="db7b7e2d-e263-457b-a855-b1651daa69c0" transform="matrix(1.0568660312228733,0,0,1.0568660312228733,-9.263445297250612,-2.405626219005917)" stroke="none" fill="black"><switch><g><path d="M89.8 51.1l-9-13.7c-.5-.8-.7-1.7-.8-2.7-1.6-18-16.7-32.2-35.1-32.2-19.5 0-35.3 15.8-35.3 35.3 0 11.6 5.6 22.9 14.2 30.3 1 .9 1.7 2.1 1.7 3.5v20.2c0 1.6 1.2 2.9 2.8 3.1l30.3 2.7c1.8.2 3.3-1.3 3.3-3.1V80.1c0-.9.8-1.7 1.7-1.7h10.6c3.3 0 5.9-2.6 5.9-5.9V58.3c0-.6.5-1.2 1.2-1.2h5.2c3.1.1 5-3.4 3.3-6zM68.2 41c-.8 1-2.1 1.6-3.4 1.6-1.3 0-2.6-.6-3.4-1.6-.6-.7-1.5-1.1-2.5-1.1h-5.5c-.7 0-1.3.4-1.5 1-.3.7-.1 1.4.4 1.9l3.9 3.9c.7.7 1.7 1 2.5 1 1.3-.1 2.6.3 3.5 1.3.9.9 1.4 2.3 1.3 3.6-.1 1.3-.9 2.5-2 3.3-1.5 1-3.4 1-4.9 0-1.4-.9-2.1-2.4-2-4 .1-1-.2-1.9-.9-2.5l-4-4c-.5-.5-1.2-.6-1.8-.4-.7.3-1.1.9-1.1 1.5V52c0 1 .4 1.9 1.1 2.5 1 .8 1.6 2.1 1.6 3.4 0 1.3-.6 2.6-1.6 3.4-.8.7-1.8 1-2.8 1-.3 0-.6 0-.9-.1-1.7-.3-3.1-1.7-3.5-3.5-.3-1.6.2-3.1 1.4-4.2.8-.7 1.2-1.6 1.2-2.6v-5.5c0-.7-.4-1.3-1-1.5h-.1c-.6-.3-1.3-.1-1.7.3l-3.9 3.9c-.7.7-1.1 1.6-1 2.5.1 1.3-.3 2.6-1.3 3.6-.9.9-2.2 1.4-3.6 1.3-1.3-.1-2.5-.9-3.3-2-1-1.5-1-3.4 0-4.9.9-1.4 2.4-2.1 4-2 1 .1 1.9-.2 2.5-.9l4-4c.5-.5.6-1.1.3-1.7l-.1-.2c-.2-.6-.8-1-1.5-1H31c-1 0-1.9.4-2.5 1.1-.8 1-2.1 1.6-3.4 1.6-1.3 0-2.6-.6-3.4-1.6-.9-1-1.2-2.4-.9-3.7.3-1.7 1.7-3.1 3.5-3.5 1.6-.3 3.1.2 4.2 1.4.7.8 1.6 1.2 2.6 1.2h5.5c.7 0 1.3-.4 1.5-1 .3-.7.1-1.4-.4-1.9L34 29.6c-.7-.7-1.6-1-2.5-1-1.3.1-2.6-.3-3.5-1.3-.9-.9-1.4-2.3-1.3-3.6.1-1.3.9-2.5 2-3.3 1.5-1 3.4-1 4.9 0 1.4.9 2.1 2.4 2 4-.1 1 .2 1.9.9 2.5l4 4c.5.5 1.2.6 1.8.4.7-.3 1.1-.9 1.1-1.6v-5.5c0-1-.4-1.9-1.1-2.5-1-.8-1.6-2.1-1.6-3.4 0-1.3.6-2.6 1.6-3.4 1-.8 2.4-1.2 3.7-.9 1.7.3 3.1 1.7 3.5 3.5.3 1.6-.2 3.1-1.4 4.2-.8.7-1.2 1.6-1.2 2.6v5.5c0 .7.4 1.3 1 1.5h.1c.6.2 1.3.1 1.7-.3l3.9-3.9c.7-.7 1.1-1.6 1-2.5-.1-1.3.3-2.6 1.3-3.6.9-.9 2.2-1.4 3.6-1.3 1.3.1 2.5.9 3.3 2 1 1.5 1 3.4 0 4.9-.9 1.4-2.4 2.1-4 2-1-.1-1.9.2-2.5.9l-4 4c-.5.5-.6 1.2-.4 1.8v.1c.2.6.8 1 1.5 1H59c1 0 1.9-.4 2.6-1.2 1.1-1.2 2.6-1.7 4.2-1.4 1.7.3 3.1 1.7 3.5 3.5.1 1.3-.3 2.7-1.1 3.7z"></path></g></switch></g><!----></svg>